<svg width="346" height="326" viewBox="0 0 346 326" fill="none" xmlns="http://www.w3.org/2000/svg">
<g clip-path="url(#clip0_25_7)">
<path opacity="0.4" d="M292.021 125.334C296.6 125.334 300.312 120.681 300.312 114.941C300.312 109.201 296.6 104.548 292.021 104.548C287.443 104.548 283.731 109.201 283.731 114.941C283.731 120.681 287.443 125.334 292.021 125.334Z" fill="#4361EE"/>
<path opacity="0.4" d="M117.221 68.1557C123.748 68.1557 129.04 61.5226 129.04 53.3402C129.04 45.1578 123.748 38.5246 117.221 38.5246C110.694 38.5246 105.403 45.1578 105.403 53.3402C105.403 61.5226 110.694 68.1557 117.221 68.1557Z" fill="#4361EE"/>
<path opacity="0.4" d="M95.348 70.8093C99.9268 70.8093 103.639 66.1562 103.639 60.4163C103.639 54.6764 99.9268 50.0233 95.348 50.0233C90.7692 50.0233 87.0574 54.6764 87.0574 60.4163C87.0574 66.1562 90.7692 70.8093 95.348 70.8093Z" fill="#4361EE"/>
<path d="M298.965 231.162C292.414 240.152 292.176 253.249 292.176 253.249C292.176 253.249 302.559 251.769 309.11 242.778C315.661 233.788 315.899 220.691 315.899 220.691C315.899 220.691 305.516 222.171 298.965 231.162Z" fill="#3F3D56"/>
<path d="M302.665 233.749C300.683 245.669 292.351 253.575 292.351 253.575C292.351 253.575 287.232 242.154 289.214 230.234C291.197 218.314 299.529 210.408 299.529 210.408C299.529 210.408 304.648 221.829 302.665 233.749Z" fill="#4361EE"/>
<path d="M294.157 110.748V252.848L256.372 291.978H63.0663V143.012L119.47 110.748H294.157Z" fill="#3F3D56"/>
<path opacity="0.1" d="M294.157 110.748V111.317L280.593 122.699L256.372 143.012H63.0663L119.47 110.748H294.157Z" fill="black"/>
<path opacity="0.1" d="M294.157 110.748V252.848L256.372 291.978L256.646 142.669L280.593 122.699L293.938 110.748H294.157Z" fill="black"/>
<path d="M243.23 130.312H125.494L134.256 124.134H247.063L243.23 130.312Z" fill="#2F2E41"/>
<path d="M344.844 299.707C344.844 299.707 347.127 311.672 345.052 312.193C342.977 312.713 332.809 312.545 330.319 313.065C327.829 313.585 322.642 312.713 322.642 310.372C322.642 308.031 328.037 306.47 328.037 306.47C328.037 306.47 335.714 301.268 335.922 301.008C336.129 300.747 344.844 299.707 344.844 299.707Z" fill="#2F2E41"/>
<path d="M342.977 229.216C342.977 229.216 342.354 238.06 342.354 238.84C342.354 239.62 342.977 251.846 342.354 252.366C341.732 252.886 342.769 256.528 342.769 257.828C342.769 259.129 346.089 280.719 345.259 289.042C344.429 297.366 346.504 296.586 345.882 297.366C345.259 298.146 345.259 298.146 345.259 299.707C345.259 301.268 338.619 302.568 338.619 302.568L331.357 245.083L335.092 227.915L342.977 229.216Z" fill="#575A89"/>
<path opacity="0.1" d="M342.977 229.216C342.977 229.216 342.354 238.06 342.354 238.84C342.354 239.62 342.977 251.846 342.354 252.366C341.732 252.886 342.769 256.528 342.769 257.828C342.769 259.129 346.089 280.719 345.259 289.042C344.429 297.366 346.504 296.586 345.882 297.366C345.259 298.146 345.259 298.146 345.259 299.707C345.259 301.268 338.619 302.568 338.619 302.568L331.357 245.083L335.092 227.915L342.977 229.216Z" fill="black"/>
<path d="M341.939 303.349C341.939 303.349 344.014 312.713 341.939 313.233C339.864 313.753 329.697 312.637 327.207 313.157C324.717 313.677 319.53 313.753 319.53 311.412C319.53 309.071 324.924 307.51 324.924 307.51C324.924 307.51 332.602 302.308 332.809 302.048C333.017 301.788 341.939 303.349 341.939 303.349Z" fill="#2F2E41"/>
<path d="M344.844 218.811C344.844 218.811 347.334 226.354 344.429 230.256C341.524 234.158 338.204 241.961 338.204 242.482C338.204 243.002 344.014 294.765 343.184 298.146C342.354 301.528 342.562 303.609 342.769 304.129C342.977 304.649 340.694 307.51 338.204 307.51C335.714 307.51 331.979 305.169 331.564 303.088C331.149 301.008 332.187 283.06 331.979 279.678C331.772 276.297 330.734 271.354 330.319 270.314C329.904 269.273 327.622 268.233 327.207 265.112C326.792 261.99 323.472 222.193 324.51 220.892C325.547 219.591 344.844 218.811 344.844 218.811Z" fill="#575A89"/>
<path d="M329.074 158.985C332.971 158.985 336.129 155.025 336.129 150.141C336.129 145.256 332.971 141.297 329.074 141.297C325.178 141.297 322.02 145.256 322.02 150.141C322.02 155.025 325.178 158.985 329.074 158.985Z" fill="#FFB9B9"/>
<path d="M333.432 154.563C333.432 154.563 331.979 164.187 333.017 165.227C334.054 166.268 325.132 167.828 325.132 167.828C325.132 167.828 324.094 155.083 323.887 153.782C323.679 152.482 333.432 154.563 333.432 154.563Z" fill="#FFB9B9"/>
<path d="M323.887 167.048C323.887 167.048 326.377 157.944 336.544 160.545C336.544 160.545 338.412 161.326 337.789 162.106C337.167 162.886 336.544 162.886 337.374 163.667C338.204 164.447 339.242 163.667 338.619 164.447C337.997 165.227 344.222 169.909 343.807 178.753C343.392 187.597 345.259 200.083 343.807 202.164C342.354 204.245 344.844 213.349 344.429 215.169C344.014 216.99 346.919 219.331 345.674 220.112C344.429 220.892 322.02 225.574 321.397 220.112C320.775 214.649 321.19 218.551 320.567 217.25C319.945 215.95 319.737 213.609 320.152 210.747C320.567 207.886 321.605 200.863 321.19 198.262C320.775 195.661 321.19 173.811 322.435 171.21C323.68 168.609 323.887 167.048 323.887 167.048Z" fill="#4361EE"/>
<path d="M328.244 230.516C328.244 230.516 331.357 245.343 327.414 245.343C323.472 245.343 323.679 229.996 323.679 229.996L328.244 230.516Z" fill="#FFB9B9"/>
<path d="M325.962 150.141C325.962 150.895 326.833 151.374 328.184 151.483H328.186C328.759 151.524 329.333 151.51 329.904 151.441C330.768 151.342 331.124 152.359 331.272 153.702C331.512 155.915 331.176 159.018 331.564 159.505C332.1 160.176 336.003 159.502 337.223 157.981C337.413 157.767 337.539 157.479 337.582 157.164C337.71 156.235 338.075 155.383 338.623 154.737C339.343 153.751 340.368 152.659 341.524 150.921C343.599 147.8 341.524 147.539 340.902 145.198C340.279 142.857 339.242 142.077 339.242 140.516C339.242 138.956 334.469 137.655 330.527 137.915C326.584 138.175 327.414 144.418 327.414 144.418C327.414 144.418 327.18 145.172 326.9 146.145C326.521 147.366 326.213 148.62 325.979 149.896C325.969 149.977 325.963 150.059 325.962 150.141Z" fill="#2F2E41"/>
<path opacity="0.1" d="M326.792 170.95C326.792 170.95 333.847 170.43 334.469 183.435C335.092 196.441 334.884 208.667 334.884 208.927C334.884 209.187 331.979 233.898 329.282 233.898C326.584 233.898 324.509 233.378 323.887 232.077C323.265 230.776 325.547 212.048 325.547 212.048C325.547 212.048 326.584 192.279 324.924 186.037C323.264 179.794 323.057 171.73 326.792 170.95Z" fill="black"/>
<path d="M325.754 169.649C325.754 169.649 332.809 169.129 333.432 182.135C334.054 195.141 333.847 207.366 333.847 207.626C333.847 207.886 330.942 232.597 328.244 232.597C325.547 232.597 323.472 232.077 322.85 230.776C322.227 229.476 324.509 210.748 324.509 210.748C324.509 210.748 325.547 190.979 323.887 184.736C322.227 178.493 322.02 170.43 325.754 169.649Z" fill="#4361EE"/>
<path d="M208.769 42.5017C208.769 42.5017 205.695 31.5814 203.474 35.0074C201.254 38.4333 206.89 44.2147 206.89 44.2147L208.769 42.5017Z" fill="#A0616A"/>
<path d="M223.288 31.7955L221.438 32.6548C221.438 32.6548 220.555 37.5768 220.897 38.4333C221.238 39.2898 221.409 38.6474 220.897 40.3604C220.384 42.0734 218.847 46.57 218.676 47.2124C218.505 47.8548 208.769 43.144 208.769 40.7887C208.769 40.7887 206.719 43.7864 205.695 44.4288C205.695 44.4288 216.968 54.7067 218.505 55.9915C220.043 57.2762 220.897 56.6338 222.263 55.135C223.629 53.6361 229.437 41.2169 229.437 41.2169L223.288 31.7955Z" fill="#575A89"/>
<path d="M218.334 107.809C218.334 107.809 218.505 110.165 218.847 110.379C219.189 110.593 221.751 115.946 218.847 117.017C215.943 118.087 214.235 117.659 213.552 118.087C212.869 118.516 200.912 119.372 200.741 117.017C200.57 114.661 206.549 114.233 206.549 114.233C206.549 114.233 212.015 109.737 212.869 107.381C213.723 105.026 218.334 107.809 218.334 107.809Z" fill="#2F2E41"/>
<path d="M253.009 112.092C253.009 112.092 257.108 120.871 256.083 121.942C255.058 123.012 245.077 126.914 243.614 127.081C241.735 127.295 240.369 125.368 241.906 124.297C243.443 123.226 246.689 118.73 246.689 117.231V113.377L253.009 112.092Z" fill="#2F2E41"/>
<path d="M256.937 54.7067C256.937 54.7067 260.524 60.274 254.887 69.2671L245.493 84.2558C245.493 84.2558 251.3 95.8185 251.471 101.814C251.642 107.809 252.838 106.525 253.179 109.094C253.521 111.664 255.058 110.379 253.863 112.306C252.667 114.233 248.226 115.946 246.859 114.447C246.389 113.908 246.022 113.243 245.786 112.502C245.549 111.76 245.449 110.961 245.493 110.165C245.493 109.308 243.102 104.383 242.931 102.885C242.76 101.386 236.44 89.1806 236.44 89.1806C236.44 89.1806 234.39 81.9004 236.782 77.8321C239.173 73.7637 240.753 67.9937 240.753 67.9937C240.753 67.9937 233.707 78.6886 228.754 81.2581C228.754 81.2581 226.875 81.6863 227.216 82.7569C227.558 83.8276 227.217 84.4699 226.704 85.5405C226.192 86.6112 222.605 99.0303 221.409 102.242C220.213 105.454 220.726 107.381 219.359 108.452C217.993 109.522 211.844 108.666 211.844 107.595C211.844 106.525 212.698 103.741 213.21 102.242C213.723 100.743 217.822 83.3993 217.48 80.4016C217.139 77.4038 217.651 73.3355 220.213 71.6225C222.775 69.9095 235.757 55.9915 236.44 55.9915C237.123 55.9915 256.937 54.7067 256.937 54.7067Z" fill="#2F2E41"/>
<path d="M222.605 21.0893C226.567 21.0893 229.779 17.0629 229.779 12.0961C229.779 7.1293 226.567 3.10291 222.605 3.10291C218.643 3.10291 215.431 7.1293 215.431 12.0961C215.431 17.0629 218.643 21.0893 222.605 21.0893Z" fill="#A0616A"/>
<path d="M228.412 12.9526C228.412 12.9526 230.633 17.8775 233.366 18.5198C236.099 19.1622 226.192 29.0119 226.192 29.0119C226.192 29.0119 223.8 19.5905 221.751 19.1622C219.701 18.734 228.412 12.9526 228.412 12.9526Z" fill="#A0616A"/>
<path d="M221.409 33.0802C221.409 35.8638 228.071 43.7864 228.071 43.7864L234.39 50.4242C234.39 50.4242 234.561 52.7796 235.245 52.9937C235.928 53.2078 236.782 53.2078 236.099 54.4926C235.415 55.7773 233.707 58.5609 235.245 58.9892C235.708 59.0775 236.175 59.1333 236.643 59.1562C237.053 59.1862 237.535 59.214 238.077 59.2397C239.341 59.2954 240.922 59.3318 242.635 59.3168C243.122 59.3146 243.618 59.3075 244.121 59.2954C250.58 59.1348 258.061 58.2033 257.45 55.1349C256.425 49.996 257.108 48.283 254.888 45.4994C252.667 42.7158 249.08 33.0802 249.08 33.0802C249.08 33.0802 241.906 17.8774 235.928 17.8774L234.686 17.4684C234.109 17.2779 233.499 17.3197 232.942 17.5879C232.385 17.8562 231.909 18.3372 231.582 18.963C230.383 21.252 228.492 24.6908 227.387 25.8C225.679 27.513 225.413 26.2839 225.413 26.2839C225.413 26.2839 221.409 30.2966 221.409 33.0802Z" fill="#575A89"/>
<path d="M236.611 65.627C236.611 65.627 231.658 75.2626 234.732 76.9756C237.807 78.6886 239.515 66.9118 239.515 66.9118L236.611 65.627Z" fill="#A0616A"/>
<path d="M227.295 11.0803C227.019 11.0368 226.932 10.6013 226.886 10.2582C226.638 8.42144 225.546 6.67965 224.079 6.38313C223.518 6.28961 222.948 6.34722 222.406 6.55211C221.63 6.819 220.902 7.2684 220.26 7.87636C219.946 8.23629 219.582 8.52228 219.187 8.72059C218.918 8.81968 217.775 9.45671 217.508 9.56449C216.921 9.80146 216.435 10.5719 215.83 10.4193C215.252 10.2734 215.032 9.39763 214.939 8.66708C214.727 7.00274 215.487 4.51939 216.243 3.1253C216.816 2.06739 217.786 1.45855 218.756 1.06246C219.893 0.629995 221.061 0.339121 222.243 0.194057C223.838 -0.042188 225.491 -0.167529 227.02 0.450789C228.55 1.06911 229.942 2.58165 230.227 4.56387C230.287 4.97678 230.298 5.39971 230.371 5.80923C230.549 6.80826 231.076 7.648 231.384 8.59617C231.606 9.29253 231.709 10.0395 231.686 10.7888C231.664 11.5381 231.516 12.2732 231.253 12.9467C230.827 14.0205 230.086 15.0523 230.246 16.2346L228.928 14.9317C228.738 14.796 228.59 14.5826 228.51 14.3269C228.43 14.0713 228.422 13.789 228.488 13.5271L228.68 11.4581C228.746 11.0833 228.716 10.6917 228.594 10.3395C228.008 9.05656 227.754 11.1529 227.295 11.0803Z" fill="#2F2E41"/>
<path opacity="0.1" d="M239.686 50.8525L238.077 59.2397C239.699 59.3125 241.846 59.3511 244.121 59.2954C244.695 57.137 245.244 54.8866 245.664 52.7796C247.201 45.0712 244.639 33.2943 243.273 27.7271C241.906 22.1599 238.49 20.661 238.49 20.661C237.089 21.2785 235.766 22.1437 234.561 23.2305C232.341 25.1576 239.686 50.8525 239.686 50.8525Z" fill="black"/>
<path opacity="0.1" d="M238.319 50.4242L236.643 59.1562C237.053 59.1862 237.535 59.214 238.077 59.2397C239.34 59.2954 240.922 59.3318 242.635 59.3168C243.252 57.0235 243.848 54.6039 244.297 52.3513C245.835 44.6429 243.273 32.8661 241.906 27.2989C240.54 21.7316 237.55 27.8342 237.55 27.8342C237.55 27.8342 238.746 24.194 236.526 26.1212C234.305 28.0483 238.319 50.4242 238.319 50.4242Z" fill="black"/>
<path d="M237.807 20.2328C237.807 20.2328 241.223 21.7316 242.589 27.2989C243.956 32.8661 246.518 44.6429 244.981 52.3513C243.443 60.0598 240.198 69.6954 240.198 69.6954C240.198 69.6954 236.953 66.6976 235.757 67.34L239.002 50.4242C239.002 50.4242 231.658 24.7294 233.878 22.8023C235.083 21.7155 236.406 20.8502 237.807 20.2328Z" fill="#575A89"/>
<path d="M240.353 127.635L193.096 4.18561L114.078 51.7205L143.139 127.635H240.353Z" fill="#F2F2F2"/>
<path d="M177.104 52.6425L135.135 77.89L136.385 81.1555L178.354 55.9081L177.104 52.6425Z" fill="#3F3D56"/>
<path d="M188.216 81.6698L146.247 106.917L147.497 110.183L189.466 84.9354L188.216 81.6698Z" fill="#3F3D56"/>
<path d="M195.849 35.563L185.429 41.8313L190.429 54.8936L200.849 48.6253L195.849 35.563Z" fill="#3F3D56"/>
<path d="M206.96 64.5903L196.54 70.8587L201.541 83.921L211.961 77.6526L206.96 64.5903Z" fill="#3F3D56"/>
<path d="M196.567 26.5153L192.275 41.8211L186.491 39.2722L185.699 42.0957L193.728 45.6331L198.819 27.5076L196.567 26.5153Z" fill="#57B894"/>
<path d="M207.678 55.5424L203.387 70.8483L197.603 68.2999L196.811 71.1228L204.84 74.6603L209.931 56.5348L207.678 55.5424Z" fill="#57B894"/>
<path d="M4.56063 269.718L25.911 264.001L21.3504 237.237L1.26996e-05 242.954L4.56063 269.718Z" fill="#F2F2F2"/>
<path d="M25.3173 230.085C25.3173 230.085 17.4752 237.107 20.0892 239.916C22.7032 242.725 27.9313 231.49 27.9313 231.49L25.3173 230.085Z" fill="#FFB9B9"/>
<path d="M61.5401 240.852C61.5401 240.852 60.0464 264.259 59.6729 267.536C59.2995 270.813 58.9261 300.305 58.1792 303.582C57.4323 306.859 56.6855 314.817 56.6855 314.817H52.2043C52.2043 314.817 52.5777 300.305 51.4574 294.687C50.3371 289.07 50.7106 273.621 50.7106 273.621C50.7106 273.621 48.47 246.002 49.5903 242.257C50.7106 238.512 61.5401 240.852 61.5401 240.852Z" fill="#FFB9B9"/>
<path d="M55.5652 313.413C55.5652 313.413 57.4324 314.817 57.4324 315.753C57.4324 316.689 57.0589 319.03 57.4324 319.966C57.8058 320.903 60.4198 324.648 58.9261 325.584C57.4324 326.52 50.7106 325.584 50.7106 325.584C50.7106 325.584 51.084 319.03 51.4575 318.562C51.8309 318.094 51.084 313.413 51.084 313.413H55.5652Z" fill="#2F2E41"/>
<path d="M32.9935 240.279C32.9935 240.279 32.5191 263.752 32.616 267.06C32.713 270.368 30.6149 299.747 31.0833 303.104C31.5516 306.461 31.628 314.473 31.628 314.473L36.0844 315.063C36.0844 315.063 36.9282 300.582 38.5127 295.143C40.0971 289.704 41.0193 274.292 41.0193 274.292C41.0193 274.292 45.5602 247.12 44.7596 243.248C43.9591 239.376 32.9935 240.279 32.9935 240.279Z" fill="#FFB9B9"/>
<path d="M32.8597 313.224C32.8597 313.224 30.8853 314.375 30.8069 315.306C30.7285 316.237 30.9039 318.614 30.4541 319.496C30.0044 320.378 27.0912 323.758 28.4983 324.886C29.9054 326.014 36.6684 325.967 36.6684 325.967C36.6684 325.967 36.8458 319.4 36.5136 318.886C36.1815 318.371 37.3162 313.814 37.3162 313.814L32.8597 313.224Z" fill="#2F2E41"/>
<path d="M56.3121 205.743C56.3121 205.743 59.2995 206.211 60.4198 214.169C61.5401 222.127 65.6478 242.257 62.287 243.661C58.9261 245.066 48.8434 247.874 48.47 246.938C48.0966 246.002 47.3497 243.661 47.3497 243.661C47.3497 243.661 48.47 247.874 46.9763 247.874C45.4826 247.874 30.9188 245.066 31.2922 243.661C31.6656 242.257 32.4125 231.958 32.4125 231.958C32.4125 231.958 34.653 214.637 36.8936 211.828C37.5421 211.048 38.0455 210.098 38.3682 209.046C38.6909 207.995 38.8249 206.867 38.7608 205.743H56.3121Z" fill="#2F2E41"/>
<path d="M61.9135 201.998C61.9135 201.998 57.0589 200.593 56.3121 202.466C55.5652 204.338 58.1792 207.147 59.2995 207.147C60.4198 207.147 62.287 205.743 62.287 205.743L61.9135 201.998Z" fill="#FFB9B9"/>
<path d="M51.8309 162.207C55.5432 162.207 58.5526 158.434 58.5526 153.78C58.5526 149.127 55.5432 145.354 51.8309 145.354C48.1186 145.354 45.1091 149.127 45.1091 153.78C45.1091 158.434 48.1186 162.207 51.8309 162.207Z" fill="#FFB9B9"/>
<path d="M50.7106 159.866C50.7106 159.866 49.5903 166.42 50.3372 166.42C51.084 166.42 44.7357 170.633 44.7357 170.633L39.8811 169.697L38.3874 166.888C38.3874 166.888 46.2294 160.334 46.2294 156.589C46.2294 152.844 50.7106 159.866 50.7106 159.866Z" fill="#FFB9B9"/>
<path d="M47.3497 166.42C47.3497 166.42 48.47 165.484 48.8434 165.484H51.8309C52.2043 165.484 57.0589 166.888 57.0589 166.888L60.0464 187.954C60.0464 187.954 54.8183 198.721 58.5526 207.147C58.5526 207.147 57.4324 206.211 52.2043 206.679C46.9763 207.147 37.6405 208.551 37.2671 208.551C36.8936 208.551 36.8936 204.806 37.2671 203.87C37.6405 202.934 36.8936 203.402 36.8936 201.061C36.8936 198.721 35.7734 194.508 35.7734 194.508L30.5453 170.633C30.5453 170.633 37.2671 165.952 38.3874 166.42C39.5077 166.888 42.8685 168.292 43.6154 167.824C44.3623 167.356 47.3497 166.42 47.3497 166.42Z" fill="#4361EE"/>
<path d="M55.9386 167.356L57.0589 166.888C57.0589 166.888 59.2995 166.42 61.9135 169.229C64.5275 172.037 74.2368 180.464 74.2368 180.464C74.2368 180.464 77.9711 184.209 76.8508 188.422C75.7305 192.635 73.8633 202.934 68.2619 202.466C68.2619 202.466 64.901 208.083 63.0338 207.147C61.1667 206.211 59.6729 202.466 60.7932 201.998C61.9135 201.53 64.901 196.848 64.901 196.848L61.1667 187.954H60.0464L55.9387 185.145L55.9386 167.356Z" fill="#4361EE"/>
<path d="M33.5328 170.165L30.5453 170.633C30.5453 170.633 27.9313 172.037 28.3047 178.123C28.6782 184.209 26.0641 211.828 27.1844 215.105C27.1844 215.105 23.4501 231.022 24.197 231.49C24.9439 231.958 29.425 234.767 29.0516 232.894C28.6782 231.022 33.1593 217.914 33.1593 217.914C33.1593 217.914 38.3874 210.892 36.1468 201.061V193.103L33.5328 170.165Z" fill="#4361EE"/>
<path d="M57.4252 161.927L52.6779 163.224L52.0678 160.293L52.3024 163.326L44.644 165.418L44.3072 163.8L44.4366 165.474L39.5315 166.814L38.4822 154.187C37.4034 149.005 41.3406 143.483 45.4739 142.13L47.3075 141.531C50.3433 140.537 55.8615 141.44 56.6538 145.246C55.267 151.881 52.903 159.155 57.4252 161.927Z" fill="#2F2E41"/>
</g>
<defs>
<clipPath id="clip0_25_7">
<rect width="346" height="326" fill="white"/>
</clipPath>
</defs>
</svg>
