<svg width="74" height="18" viewBox="0 0 74 18" fill="none" xmlns="http://www.w3.org/2000/svg">
<path d="M0.44 17V0.199999H10.976V3.128H3.368V6.536H9.404V9.464H3.368V14.072H10.976V17H0.44ZM13.6119 8.336H21.2919V11.264H13.6119V8.336ZM29.8102 17L23.7142 0.199999H26.8222L31.6822 13.58L36.5542 0.199999H39.6502L33.5542 17H29.8102ZM45.2825 17.312C44.1785 17.312 43.1705 17.028 42.2585 16.46C41.3545 15.892 40.6305 15.132 40.0865 14.18C39.5505 13.22 39.2825 12.16 39.2825 11C39.2825 10.12 39.4385 9.3 39.7505 8.54C40.0625 7.772 40.4905 7.1 41.0345 6.524C41.5865 5.94 42.2265 5.484 42.9545 5.156C43.6825 4.828 44.4585 4.664 45.2825 4.664C46.3865 4.664 47.3905 4.948 48.2945 5.516C49.2065 6.084 49.9305 6.848 50.4665 7.808C51.0105 8.768 51.2825 9.832 51.2825 11C51.2825 11.872 51.1265 12.688 50.8145 13.448C50.5025 14.208 50.0705 14.88 49.5185 15.464C48.9745 16.04 48.3385 16.492 47.6105 16.82C46.8905 17.148 46.1145 17.312 45.2825 17.312ZM45.2825 14.384C45.8665 14.384 46.3905 14.228 46.8545 13.916C47.3185 13.604 47.6825 13.192 47.9465 12.68C48.2185 12.168 48.3545 11.608 48.3545 11C48.3545 10.376 48.2145 9.808 47.9345 9.296C47.6625 8.776 47.2905 8.364 46.8185 8.06C46.3545 7.748 45.8425 7.592 45.2825 7.592C44.7065 7.592 44.1865 7.748 43.7225 8.06C43.2585 8.372 42.8905 8.788 42.6185 9.308C42.3465 9.828 42.2105 10.392 42.2105 11C42.2105 11.632 42.3505 12.204 42.6305 12.716C42.9105 13.228 43.2825 13.636 43.7465 13.94C44.2185 14.236 44.7305 14.384 45.2825 14.384ZM59.5829 7.928H57.2549V17H54.3269V7.928H52.5509V5H54.3269V1.232H57.2549V5H59.5829V7.928ZM61.2725 17L65.6645 10.976L61.3085 4.988H64.9205L67.4645 8.48L70.0205 4.988H73.6325L69.2765 10.976L73.6685 17H70.0565L67.4645 13.448L64.8845 17H61.2725Z" fill="white"/>
</svg>
